<svg class="icon" viewBox="0 0 1024 1024" xmlns="http://www.w3.org/2000/svg" width="16" height="16"><path d="M331.755 915.685s-73.454-12.706-124.309 15.55-40.8 53.861-40.8 53.861-2.236 34.15 62.747 31.336 125.479-24.464 125.479-24.464 37.23-13.714 34.061-27.25c-5.139-21.74-48.337-46.204-48.337-46.204z" fill="#FAF4E8"/><path d="M221.944 1024c-24.539 0-42.354-5.494-52.987-16.379a32.447 32.447 0 0 1-9.715-21.503c-1.733-6.975-4.561-34.061 44.62-61.355 52.529-29.189 126.056-16.897 129.152-16.364l1.007.237 9.522 3.066.666.37c4.71 2.665 46.176 26.76 51.833 50.944 4.368 18.481-28.493 32.15-38.667 35.897-2.577.933-62.377 22.066-127.73 24.91a169.44 169.44 0 0 1-7.7.177zm70.61-103.665c-24.405 0-56.156 3.332-81.45 17.416-43.243 24.02-37.586 44.502-37.497 44.694l.652 1.674-.163 1.48c0 .12-.09 6.19 5.82 12.01s19.459 12.737 49.21 11.434c63.044-2.74 122.725-23.814 123.317-24.036 15.698-5.805 29.263-15.09 29.308-18.6-3.14-13.328-28.449-32.047-44.132-41.066l-7.538-2.414a257.266 257.266 0 0 0-37.526-2.636z" fill="#89A230"/><path d="M711.449 915.685s73.44-12.706 124.294 15.55 40.814 53.861 40.814 53.861 2.236 34.15-62.746 31.336-125.48-24.464-125.48-24.464-37.23-13.714-34.06-27.25c5.138-21.74 48.337-46.204 48.337-46.204z" fill="#FAF4E8"/><path d="M821.17 1024c-2.517 0-5.094 0-7.76-.178-65.338-2.843-125.137-23.976-127.655-24.88-10.233-3.776-43.11-17.445-38.741-35.926 5.716-24.184 47.197-48.279 51.906-50.944l.652-.37 10.53-3.303c3.11-.533 76.637-12.825 129.166 16.364 49.166 27.309 46.353 54.38 44.62 61.355a32.447 32.447 0 0 1-9.715 21.503C863.54 1018.506 845.724 1024 821.171 1024zm-115.645-98.674c-15.683 9.019-40.992 27.767-44.131 41.096 0 3.495 13.61 12.795 29.381 18.6.519.193 60.2 21.266 123.243 24.006 30.151 1.318 43.569-5.672 49.522-11.759a17.593 17.593 0 0 0 5.509-11.684l-.133-1.866.577-1.23c.415-1.584 4.547-21.458-37.467-44.782-45.909-25.532-112.684-15.787-118.963-14.81z" fill="#89A230"/><path d="M395.227 152.713s77.926 6.96 79.022 66.064-58.318 194.001-79.022 211.772 247.877 5.42 247.877 5.42-73.868-139.532-59.103-204.693c11.536-50.914 59.103-68.123 59.103-68.123z" fill="#B5D361"/><path d="M480.425 447.506c-17.682 0-32.803-.252-45.198-.756-40.977-1.643-45.687-5.657-47.863-11.136a9.374 9.374 0 0 1 3.11-10.722c7.878-6.753 26.552-39.704 45.627-87.478 19.755-49.448 31.277-93.743 30.803-118.474-.4-21.34-12.277-37.645-35.305-48.47a126.145 126.145 0 0 0-37.023-10.367l.977-14.81 285.448 12.01-35.364 12.781c-.43.148-43.94 16.601-54.395 62.762-13.994 61.784 57.756 198.221 58.423 199.599l5.464 10.366-11.67.533c-.606 0-61.635 2.814-122.56 3.821q-22.066.34-40.474.34zm-74.402-17.771c28.138 4.62 129.285 3.524 225.308-.608-16.971-34.06-67.456-142.168-54.483-199.45 6.782-29.945 24.894-48.975 40.103-60.14l-169.24-7.228c21.814 13.329 33.499 32.58 33.943 56.275.726 38.371-22.036 99.681-31.855 124.265-13.165 33.024-30.803 69.988-43.835 86.812z" fill="#8DA82C"/><path d="M500.536 127.789c-53.314-18.823-191.78-107.056-366.78 47.167-37.705 33.218-49.36 45.613-78.045 112.55-12.366 28.85-20.2 86.442-24.88 135.431-2.4 25.176 29.145 38.193 45.287 18.778 25.723-30.98 55.105-63.117 72.787-72.032 55.727-28.137 44.724-25.753 131.995-38.37 323.02-46.724 301.087-174.78 219.636-203.524z" fill="#B5D361"/><path d="M56.629 458.494a33.824 33.824 0 0 1-12.988-2.636 32.462 32.462 0 0 1-20.185-33.632c6.398-66.849 14.957-113.157 25.457-137.637 29.485-68.804 41.792-81.554 79.97-115.171 68.27-60.155 139.473-90.825 211.639-91.18h1.273c59.874 0 108.108 20.466 140.11 34.06 8.175 3.466 15.24 6.457 21.119 8.545 36.756 12.959 59.326 43.303 56.171 75.528-2.029 20.584-15.253 51.328-66.775 80.888-47.952 27.53-118.755 48.204-210.424 61.458l-9.034 1.303c-68.833 9.922-68.833 9.922-106.626 29.234-4.177 2.132-8.797 4.442-14.01 7.108-9.537 4.813-29.5 20.881-70.433 70.152a32.58 32.58 0 0 1-25.264 11.98zM341.573 92.81c-57.667 0-126.382 20.273-202.886 87.715-37.023 32.58-47.805 43.835-76.12 109.9-9.744 22.746-18.156 68.818-24.317 133.282a18.245 18.245 0 0 0 32.21 13.329c34.18-41.126 59.46-65.99 75.157-73.913 5.184-2.607 9.79-4.961 13.95-7.08 39.66-20.229 40.711-20.525 111.292-30.699l9.019-1.303c89.833-12.988 158.859-33.054 205.182-59.637 46.057-26.434 57.756-52.38 59.4-69.485 2.488-25.28-16.142-49.418-46.353-60.08-6.309-2.222-13.565-5.303-21.962-8.886-32.21-13.699-78.09-33.158-134.572-33.158z" fill="#8DA82C"/><path d="M522.853 49.626c53.314-18.823 191.78-107.041 366.78 47.167 37.705 33.232 49.36 45.628 78.03 112.55 12.885 30.048 20.852 91.314 25.458 141.532 2.147 23.325-27.16 35.35-42.044 17.253-26.656-32.314-58.037-67.263-76.608-76.623-55.727-28.137-44.724-25.753-131.98-38.37-323.034-46.694-301.087-174.75-219.636-203.51z" fill="#B5D361"/><path d="M969.13 384.315a30.714 30.714 0 0 1-23.828-11.477c-43.332-52.692-64.272-69.708-74.21-74.728-5.197-2.621-9.818-4.976-14.009-7.108-37.852-19.252-37.852-19.252-106.626-29.234l-9.034-1.303c-91.684-13.328-162.472-33.928-210.425-61.444-51.521-29.618-64.746-60.318-66.774-80.888-3.155-32.18 19.414-62.51 56.156-75.527 5.924-2.073 12.943-5.08 21.118-8.545C573.501 20.481 621.75 0 681.623 0h1.259c72.18.355 143.383 31.025 211.639 91.18 38.163 33.618 50.47 46.383 79.97 115.187 10.825 25.264 19.578 73.631 26.02 143.768a30.626 30.626 0 0 1-19.252 31.692 31.84 31.84 0 0 1-12.13 2.488zm-443.863-327.7c-30.196 10.663-48.87 34.802-46.353 60.067 1.689 17.105 13.329 43.065 59.415 69.485 46.323 26.657 115.35 46.65 205.167 59.637l9.034 1.303c70.58 10.189 71.617 10.47 111.291 30.7 4.162 2.117 8.767 4.442 13.936 7.078 16.29 8.22 42.873 34.654 78.992 78.49a16.379 16.379 0 0 0 28.967-11.848c-6.22-67.634-14.809-115.793-24.894-139.296-28.315-66.079-39.156-77.319-76.134-109.914-151.499-133.505-272.49-82.176-337.444-54.602-8.397 3.555-15.668 6.635-21.977 8.886z" fill="#8DA82C"/><path d="M869.908 604.424C797.594 457.664 665.733 385.381 515.212 387.5l-.208.34-.207-.34c-150.536-2.118-282.397 70.166-354.71 216.925S79.271 985.096 487.621 985.096q14.335 0 27.382-.962c8.708.636 17.771.962 27.383.962 408.38 0 399.864-233.927 327.52-380.672z" fill="#B5D361"/><path d="M542.416 992.5c-9.418 0-18.63-.31-27.382-.947-8.767.637-17.978.948-27.382.948-92.025 0-168.47-11.951-227.219-35.542-52.617-21.118-91.684-51.73-116.104-90.988-61.118-98.245-13.965-217.933 9.152-264.82 35.927-72.92 86.693-129.225 150.877-167.344 61.77-36.712 132.572-54.794 210.572-53.654h.208c77.94-1.11 148.803 16.942 210.572 53.654 64.184 38.164 114.95 94.468 150.877 167.345 23.102 46.886 70.255 166.574 9.137 264.819-24.42 39.259-63.472 69.87-116.09 90.988-58.763 23.59-135.193 35.542-227.218 35.542zm-27.382-15.786h.533c8.575.637 17.594.948 26.85.948 90.114 0 164.708-11.596 221.694-34.476 49.64-19.918 86.323-48.545 109.04-85.08 57.193-91.935 12.159-205.848-9.848-250.438-66.775-135.52-191.04-212.839-341.708-212.839h-2.251l-4.31 6.798-4.31-6.798h-2.265c-150.61 0-274.92 77.305-341.694 212.839-22.021 44.664-67.056 158.459-9.863 250.439 22.732 36.534 59.415 65.16 109.04 85.079 57.001 22.88 131.58 34.476 221.71 34.476 9.24 0 18.274-.311 26.834-.948z" fill="#8DA82C"/><path d="M533.086 395.377s-22.302-.281-28.67 0 2.31 17.386 2.31 17.386h28.39z" fill="#B5D361"/><path d="M516.352 978.299V568.26c-.933-2.562-44.043-63.605-110.729-81.45-45.79-12.233-80.829-5.569-114.86 11.684-39.985 20.289-80.251 69.9-95.342 120.725-8.886 29.93-9.878 42.947-3.229 94.601 0 0 3.777 23.118-1.732 31.189-34.432 50.455-34.24 131.935 75.853 177.089 109.351 44.842 242.694 56.156 250.01 56.156z" fill="#FAF4E8"/><path d="M515.034 978.299V569.564c.933-2.562 44.043-63.606 110.729-81.451 45.79-12.233 80.814-5.554 114.845 11.699 39.985 20.289 80.252 69.9 95.357 120.725 8.886 29.93 9.878 42.947 3.214 94.601 0 0-3.762 23.103 1.747 31.189 34.432 50.455 34.24 131.935-75.853 177.089-109.351 44.842-242.708 54.794-250.024 54.794z" fill="#FAF4E8"/><path d="M399.315 657.456c3.465 23.695 7.3 58.956-6.516 72.64-15.58 15.446-53.965 11.58-82.4 8.115-46.693-5.687-81.45-24.998-81.45-47.597 0-42.547 38.134-110.18 85.183-110.18s79.022 34.92 85.183 77.022z" fill="#AA3A40"/><path d="M315.775 644.187a24.91 24.91 0 1 0 49.819 0 24.91 24.91 0 1 0-49.818 0Z" fill="#FFF"/><path d="M630.665 657.456c-3.466 23.695-7.301 58.956 6.516 72.64 15.579 15.446 53.965 11.58 82.398 8.115 46.694-5.687 81.451-24.998 81.451-47.597 0-42.547-38.134-110.18-85.183-110.18s-79.022 34.92-85.182 77.022z" fill="#AA3A40"/><path d="M664.385 644.187a24.91 24.91 0 1 0 49.819 0 24.91 24.91 0 1 0-49.819 0Z" fill="#FFF"/><path d="M480.292 872.102c-10.989 0-22.348-2.192-32.507-8.397-21.073-12.884-31.943-39.497-32.284-79.111l14.81-.134c.296 34.165 8.781 56.572 25.175 66.642 26.316 16.083 66.73-3.865 68.434-4.724l6.634 13.24c-3.436 1.688-25.93 12.484-50.262 12.484z" fill="#8DA82C"/><path d="M568.747 871.435c-25.753 0-48.87-10.751-50.351-11.418l6.323-13.402c.445.207 44.354 20.466 72.566 2.695 16.482-10.366 24.983-32.166 25.279-64.82l14.81.133c-.341 38.06-11.197 64.05-32.255 77.26-11.285 7.109-24.125 9.552-36.372 9.552z" fill="#8DA82C"/></svg>